<svg width="19" height="20" viewBox="0 0 19 20" fill="none" xmlns="http://www.w3.org/2000/svg">
<path fill-rule="evenodd" clip-rule="evenodd" d="M5.61118 0.298841C6.57102 0.254639 6.87704 0.245052 9.32176 0.251253C11.7665 0.257454 12.0725 0.269458 13.0312 0.317663C13.99 0.365867 14.6442 0.529027 15.2163 0.764525C15.8154 1.00527 16.3586 1.38061 16.8073 1.86538C17.2643 2.34068 17.6163 2.91503 17.8405 3.54951C18.0615 4.15462 18.212 4.84591 18.2536 5.85647C18.2952 6.87135 18.3042 7.19438 18.2976 9.77405C18.2911 12.3546 18.2796 12.6776 18.2337 13.6905C18.1878 14.7008 18.033 15.3914 17.8089 15.9953C17.5815 16.6287 17.226 17.2023 16.7672 17.6759C16.316 18.1584 15.771 18.5301 15.1706 18.767C14.5973 19.0004 13.9424 19.1594 12.985 19.2036C12.0243 19.2478 11.7183 19.2574 9.27357 19.2512C6.82885 19.245 6.52288 19.233 5.56327 19.1848C4.60612 19.1366 3.95198 18.9734 3.37985 18.7371C2.77985 18.4971 2.23663 18.1221 1.788 17.6379C1.33133 17.1623 0.978466 16.5873 0.753999 15.9529C0.533806 15.3478 0.383377 14.6565 0.341758 13.646C0.300151 12.6311 0.291152 12.3081 0.297695 9.72839C0.304241 7.14786 0.315697 6.82488 0.361628 5.81282C0.407559 4.80075 0.562311 4.11023 0.785571 3.50625C1.01359 2.87299 1.36964 2.29977 1.82893 1.82652C2.27936 1.34446 2.82394 0.971838 3.4247 0.734615C3.99802 0.502023 4.65297 0.343047 5.61036 0.298839L5.61118 0.298841ZM12.9541 2.02747C12.0051 1.97929 11.7204 1.96907 9.31742 1.96297C6.91443 1.95688 6.62968 1.96566 5.68047 2.00902C4.80246 2.04911 4.32589 2.2025 4.0081 2.3321C3.58794 2.50376 3.28715 2.70768 2.97131 3.03938C2.67193 3.34526 2.44119 3.71796 2.29599 4.13017C2.1716 4.46495 2.02387 4.96721 1.98143 5.89379C1.93552 6.89549 1.92576 7.19602 1.91933 9.73251C1.91289 12.269 1.92113 12.5696 1.96195 13.5715C1.99969 14.4983 2.14487 15.0013 2.26757 15.3367C2.41052 15.749 2.63948 16.1235 2.93734 16.4309C3.22699 16.7468 3.58065 16.9904 3.97053 17.1434C4.28766 17.2746 4.76345 17.4304 5.64124 17.475C6.59022 17.5232 6.8741 17.5334 9.27791 17.5395C11.6817 17.5456 11.9657 17.5368 12.9149 17.4934C13.7929 17.4533 14.2694 17.2999 14.5872 17.1703C15.0074 16.9987 15.3082 16.7948 15.624 16.4631C15.9234 16.1572 16.1543 15.7839 16.2993 15.3723C16.4237 15.0375 16.5715 14.5352 16.6139 13.6087C16.6598 12.607 16.6696 12.3064 16.676 9.76994C16.6824 7.23345 16.6742 6.93288 16.6334 5.93095C16.5956 5.00417 16.4505 4.50117 16.3278 4.16576C16.1653 3.72231 15.9721 3.40486 15.658 3.07156C15.3683 2.75566 15.0153 2.5122 14.6248 2.35903C14.3077 2.22782 13.8319 2.07202 12.9541 2.02747ZM8.1407 12.6769C8.78197 12.9606 9.49673 13.0005 10.1629 12.7897C10.8291 12.579 11.4053 12.1306 11.7932 11.5213C12.1811 10.912 12.3566 10.1795 12.2898 9.44886C12.2229 8.71825 11.9178 8.03488 11.4265 7.51548C11.1134 7.18346 10.7344 6.92888 10.3168 6.77006C9.89919 6.61125 9.45341 6.55215 9.01153 6.59702C8.56965 6.64189 8.14266 6.78962 7.76131 7.02957C7.37996 7.26951 7.05374 7.59571 6.80611 7.98468C6.55849 8.37364 6.39564 8.8157 6.32928 9.27902C6.26291 9.74234 6.29469 10.2154 6.42233 10.6642C6.54996 11.1129 6.77028 11.5262 7.06741 11.8742C7.36454 12.2222 7.7311 12.4964 8.1407 12.6769ZM6.03534 6.29012C6.46606 5.83778 6.97694 5.47939 7.53881 5.23542C8.10069 4.99145 8.70256 4.86667 9.31005 4.86822C9.91755 4.86976 10.5188 4.99758 11.0794 5.2444C11.64 5.49122 12.1491 5.85219 12.5775 6.30671C13.0059 6.76123 13.3453 7.30039 13.5763 7.89342C13.8073 8.48644 13.9253 9.12171 13.9237 9.76296C13.922 10.4042 13.8008 11.0389 13.5668 11.6307C13.3328 12.2226 12.9907 12.76 12.56 13.2123C11.6901 14.1259 10.5122 14.6373 9.28528 14.6342C8.05839 14.6311 6.88305 14.1137 6.01783 13.1957C5.15261 12.2778 4.66838 11.0345 4.67166 9.73949C4.67495 8.44443 5.16548 7.20366 6.03534 6.29012ZM14.9602 5.60975C15.0669 5.50403 15.1524 5.37678 15.2118 5.23555C15.2711 5.09432 15.3029 4.94197 15.3054 4.78752C15.308 4.63308 15.2811 4.47967 15.2265 4.3364C15.1718 4.19312 15.0905 4.06288 14.9873 3.9534C14.8841 3.84391 14.7611 3.7574 14.6256 3.69898C14.4902 3.64057 14.345 3.61144 14.1987 3.61332C14.0523 3.6152 13.9079 3.64805 13.7738 3.70993C13.6397 3.77181 13.5187 3.86146 13.418 3.97356C13.2221 4.19159 13.1145 4.48158 13.1179 4.78197C13.1212 5.08236 13.2354 5.3695 13.4361 5.58243C13.6368 5.79537 13.9083 5.91733 14.1928 5.92243C14.4774 5.92753 14.7526 5.81537 14.9602 5.60975Z" fill="#48CAE4"/>
</svg>
