<svg width="20" height="21" viewBox="0 0 20 21" fill="none" xmlns="http://www.w3.org/2000/svg">
<path d="M18.1026 0.833073L1.53766 0.791055C0.745483 0.789045 0.101023 1.41516 0.0990623 2.18817L0.0568627 18.8247C0.0548992 19.5988 0.696173 20.229 1.48835 20.231L18.0533 20.273C18.8461 20.275 19.4948 19.6481 19.4968 18.874L19.539 2.23748C19.541 1.46447 18.8954 0.835083 18.1026 0.833073ZM5.82616 17.3676L2.94149 17.3603L2.96502 8.08335L5.84969 8.09067L5.82616 17.3676ZM4.41057 6.81855C4.191 6.818 3.9737 6.77418 3.77107 6.68961C3.56844 6.60503 3.38446 6.48136 3.22965 6.32566C3.07483 6.16996 2.95222 5.98528 2.86881 5.78217C2.78539 5.57906 2.74282 5.36151 2.74352 5.14194C2.74464 4.69872 2.92179 4.2741 3.23599 3.96149C3.55019 3.64888 3.9757 3.47389 4.41892 3.47502C4.86214 3.47614 5.28676 3.65329 5.59936 3.96749C5.91197 4.28168 6.08696 4.7072 6.08584 5.15042C6.08471 5.59372 5.90762 6.01845 5.59349 6.33125C5.27936 6.64404 4.85388 6.81932 4.41057 6.81855ZM16.625 17.395L13.745 17.3877L13.7564 12.8765C13.7591 11.8003 13.7416 10.4165 12.2639 10.4127C10.7632 10.4089 10.5316 11.5804 10.5285 12.7903L10.5169 17.3797L7.63461 17.3724L7.65814 8.09525L10.4243 8.10227L10.4211 9.36911L10.4605 9.36921C10.8474 8.64119 11.79 7.87434 13.1929 7.8779C16.1105 7.8853 16.6446 9.80744 16.6382 12.3063L16.6253 17.395L16.625 17.395Z" fill="#48CAE4"/>
</svg>
