<svg width="20" height="21" viewBox="0 0 10 12" fill="none" xmlns="http://www.w3.org/2000/svg">
<path d="M4.55936 0.607496C3.3746 0.605889 2.23758 1.07427 1.39771 1.90989C0.557836 2.74551 0.0836944 3.88015 0.0792915 5.0649C0.0754167 6.03307 0.389281 6.97579 0.972737 7.74842C0.972737 7.74842 1.0942 7.9092 1.11405 7.93241L4.53051 11.9825L7.9691 7.94776C7.98703 7.92628 8.10971 7.76652 8.10971 7.76652L8.11012 7.76531C8.6972 6.99598 9.01569 6.05531 9.01676 5.08757C9.01837 3.90281 8.54999 2.76579 7.71437 1.92591C6.87874 1.08604 5.74411 0.611899 4.55936 0.607496ZM4.5439 6.70123C4.22251 6.70041 3.90858 6.60431 3.6418 6.42508C3.37502 6.24584 3.16739 5.99152 3.04515 5.69428C2.92291 5.39704 2.89156 5.07023 2.95506 4.75517C3.01856 4.44011 3.17406 4.15096 3.4019 3.92427C3.62973 3.69759 3.91967 3.54356 4.23505 3.48166C4.55042 3.41976 4.87708 3.45276 5.17369 3.57651C5.47031 3.70025 5.72357 3.90918 5.90145 4.17686C6.07933 4.44454 6.17384 4.75896 6.17302 5.08035C6.17139 5.51116 5.99897 5.92374 5.69356 6.2276C5.38816 6.53145 4.97472 6.70178 4.5439 6.70123Z" fill="#48CAE4"/>
</svg>
