<svg width="20" height="21" viewBox="0 0 11 11" fill="none" xmlns="http://www.w3.org/2000/svg">
<path d="M7.36688 7.5311L8.27919 6.62341C8.40206 6.50268 8.55734 6.42021 8.72618 6.38603C8.89501 6.35184 9.07014 6.3674 9.2303 6.43082L10.3382 6.87645C10.5001 6.94262 10.6387 7.05522 10.7367 7.20006C10.8346 7.3449 10.8875 7.5155 10.8887 7.69035L10.8835 9.72159C10.8823 9.84053 10.857 9.95799 10.8091 10.0669C10.7613 10.1758 10.6919 10.2739 10.6052 10.3553C10.5184 10.4367 10.4161 10.4996 10.3044 10.5404C10.1927 10.5812 10.0738 10.599 9.95506 10.5927C2.18475 10.0895 0.633325 3.50432 0.343152 0.984827C0.329699 0.861104 0.342595 0.735935 0.380991 0.617554C0.419387 0.499173 0.482413 0.390263 0.565922 0.297989C0.649432 0.205715 0.751532 0.132168 0.865507 0.0821875C0.979482 0.0322066 1.10275 0.00692433 1.2272 0.00800376L3.18938 0.012981C3.36447 0.0139434 3.53528 0.0672672 3.67982 0.166094C3.82436 0.26492 3.93603 0.40473 4.00047 0.56754L4.44047 1.67772C4.50517 1.83757 4.52133 2.01294 4.48694 2.18192C4.45256 2.3509 4.36914 2.50601 4.24712 2.62786L3.33482 3.53555C3.33482 3.53555 3.84988 7.08343 7.36688 7.5311Z" fill="#48CAE4"/>
</svg>
