<svg width="25" height="17" viewBox="0 0 25 17" fill="none" xmlns="http://www.w3.org/2000/svg">
<path d="M24.3092 2.28238C23.4098 2.60665 22.4561 2.81847 21.4798 2.91078C22.5091 2.40882 23.2805 1.61679 23.65 0.682315C22.6825 1.15042 21.6243 1.47909 20.5211 1.65407C20.0615 1.24984 19.5056 0.927261 18.8879 0.706334C18.2703 0.485408 17.604 0.370838 16.9305 0.369726C14.2114 0.362829 12.002 2.16526 11.9964 4.39615C11.9956 4.7124 12.0384 5.02109 12.1218 5.3171C8.02995 5.13824 4.40613 3.52094 1.98376 1.07093C1.54431 1.68623 1.31244 2.38651 1.31193 3.09994C1.3096 3.76491 1.50755 4.42023 1.8882 5.00766C2.26885 5.59509 2.8204 6.09644 3.49386 6.46717C2.71214 6.44481 1.94803 6.26968 1.2651 5.95633C1.26444 5.9732 1.2644 5.98982 1.26435 6.0072C1.25939 7.96351 2.95232 9.6002 5.20354 9.97739C4.47794 10.1366 3.71754 10.1583 2.97988 10.0408C3.60227 11.6466 5.41762 12.8193 7.57215 12.8575C5.82514 13.9759 3.6698 14.5794 1.4527 14.5711C1.05531 14.57 0.663586 14.5501 0.278139 14.5116C2.52646 15.7038 5.14506 16.3403 7.82106 16.3449C16.8777 16.3679 21.8458 10.2264 21.8594 4.88979C21.8598 4.71492 21.8553 4.54029 21.8464 4.36668C22.8123 3.79795 23.6464 3.09209 24.3092 2.28238Z" fill="#48CAE4"/>
</svg>
