<svg width="99" height="76" viewBox="0 0 99 76" fill="none" xmlns="http://www.w3.org/2000/svg">
<path d="M50.7597 2.29489C50.7597 3.42377 50.6269 3.68939 49.7636 4.12102C49.1992 4.41984 48.6015 5.01748 48.4355 5.44911C48.1699 6.14635 47.9043 6.27917 46.7754 6.27917C44.9825 6.27917 44.9161 7.17563 46.709 7.34164L47.9375 7.44125L48.0371 10.9607L48.1367 14.4469L46.4434 15.2438C44.418 16.2066 41.9943 18.6636 41.0314 20.8218C40.4338 22.1498 40.301 23.1459 40.2014 27.5618L40.0686 32.7414L38.2756 33.6046C37.2796 34.1026 36.3831 34.5011 36.3167 34.5011C36.2171 34.5011 36.1507 34.0362 36.1507 33.505C36.1507 32.7414 36.0179 32.5089 35.4866 32.5089C34.9222 32.5089 34.8226 32.7414 34.8226 33.8038C34.8226 34.7999 34.6566 35.1651 34.1917 35.3311C32.7973 35.7628 32.6644 36.294 32.4984 43.5985L32.3324 50.6042H30.3403H28.3482L28.1821 48.8777C27.9829 47.1179 27.2857 45.9559 26.1568 45.6238C25.692 45.4578 25.526 45.0926 25.526 44.0965C25.526 43.1669 25.3932 42.8016 25.0279 42.8016C24.6627 42.8016 24.5299 43.1669 24.5299 44.1297C24.5299 45.2254 24.3971 45.5242 23.7662 45.7566C22.6042 46.2215 22.1393 46.9519 21.9069 48.8444L21.7077 50.6042L19.8152 50.7038L17.8894 50.8034V44.1297C17.8894 37.7217 17.8562 37.4893 17.2254 37.4893C16.661 37.4893 16.5614 37.7217 16.5614 38.8174C16.5614 39.913 16.4617 40.1455 15.8973 40.1455C15.2665 40.1455 15.2333 39.913 15.2333 36.8252V33.505H16.5614C17.5242 33.505 17.8894 33.3722 17.8894 33.007C17.8894 32.6418 17.5242 32.5089 16.5614 32.5089C15.4325 32.5089 15.1669 32.3761 14.9012 31.6789C14.7352 31.2141 14.1376 30.55 13.5732 30.2512C12.7431 29.7864 12.5771 29.4875 12.5771 28.4251C12.5771 27.5618 12.4443 27.1966 12.0791 27.1966C11.7138 27.1966 11.581 27.5618 11.581 28.4915C11.581 29.5207 11.4482 29.8528 10.917 30.0188C10.5517 30.1184 9.8545 30.7492 9.38967 31.3801C8.69242 32.2765 8.294 32.5089 7.39754 32.5089C6.60068 32.5089 6.26866 32.675 6.26866 33.007C6.26866 33.3722 6.63388 33.505 7.59675 33.505H8.92484V36.8252V40.1455H8.09478C7.36433 40.1455 7.26473 40.0126 7.26473 38.8174C7.26473 37.8545 7.13192 37.4893 6.76669 37.4893C6.36827 37.4893 6.26866 38.5186 6.20225 44.0301L6.10265 50.6042L4.87416 50.7038C3.08124 50.8698 3.14765 51.7662 4.94057 51.7662H6.26866V62.889V74.0118H3.61248C1.18871 74.0118 0.956299 74.0782 0.956299 74.6758C0.956299 75.3398 1.18871 75.3398 49.9296 75.3398C98.6705 75.3398 98.9029 75.3398 98.9029 74.6758C98.9029 74.1114 98.6705 74.0118 97.5748 74.0118H96.2468V62.889V51.7662H97.5748C98.5377 51.7662 98.9029 51.6334 98.9029 51.2682C98.9029 50.903 98.5377 50.7702 97.5748 50.7702H96.2468L96.1804 44.1961C96.0807 38.6514 96.0143 37.6553 95.5827 37.6553C95.2507 37.6553 95.0515 38.0537 94.9851 38.8838C94.8855 39.8798 94.7527 40.1455 94.2214 40.1455C93.6238 40.1455 93.5906 39.8798 93.5906 36.8252V33.505H94.9187C95.8815 33.505 96.2468 33.3722 96.2468 33.007C96.2468 32.6418 95.8815 32.5089 94.9187 32.5089C93.7898 32.5089 93.5242 32.3761 93.0925 31.5129C92.7937 30.9484 92.1961 30.3508 91.7645 30.1848C91.0672 29.9192 90.9344 29.6535 90.9344 28.5247C90.9344 27.429 90.8348 27.1966 90.2703 27.1966C89.7391 27.1966 89.6063 27.429 89.6063 28.3587C89.6063 29.9524 87.1493 32.5089 85.6552 32.5089C84.958 32.5089 84.626 32.675 84.626 33.007C84.626 33.3722 84.9912 33.505 85.9541 33.505H87.2822V36.8252C87.2822 40.1123 87.2822 40.1455 86.4853 40.1455C85.788 40.1455 85.6552 39.9794 85.5556 38.9834C85.4892 38.3193 85.3232 37.7881 85.124 37.7217C84.9248 37.6885 84.7588 40.0126 84.6924 44.0301L84.626 50.4382H82.667H80.7413L80.5089 48.778C80.3429 47.4168 80.0773 46.9519 79.1476 46.2215C78.1847 45.4578 77.9855 45.0594 77.9855 44.0301C77.9855 43.0341 77.8527 42.8016 77.3215 42.8016C76.757 42.8016 76.6574 43.0341 76.6574 44.0965C76.6574 45.2254 76.4914 45.5242 75.6614 45.9891C74.6321 46.6199 74.0013 47.9148 74.0013 49.4753C74.0013 50.4382 73.968 50.4382 72.0091 50.4382H70.017V43.8309V37.2237L69.1537 36.1944C68.6889 35.63 68.0912 35.1651 67.8256 35.1651C67.4936 35.1651 67.3608 34.7667 67.3608 33.837C67.3608 32.8742 67.228 32.5089 66.8628 32.5089C66.5307 32.5089 66.3647 32.841 66.3647 33.505C66.3647 34.7003 66.1323 34.7335 64.0406 33.671L62.3805 32.841V29.0559C62.3805 22.8471 61.5504 20.1245 58.861 17.4351C58.0642 16.6383 56.7361 15.7086 55.906 15.3766L54.4119 14.7457V10.9939V7.27523H55.74C56.7029 7.27523 57.0681 7.14243 57.0681 6.7772C57.0681 6.44518 56.7029 6.27917 55.906 6.27917C54.9764 6.27917 54.4783 5.98035 53.2498 4.78506C52.0546 3.55658 51.7557 3.05855 51.7557 2.12888C51.7557 1.33203 51.5897 0.966805 51.2577 0.966805C50.8925 0.966805 50.7597 1.33203 50.7597 2.29489ZM52.619 5.51551C53.1834 6.07995 53.117 6.11315 51.4569 6.21276C49.4648 6.34557 49.166 6.17956 49.7636 5.44911C50.328 4.78506 51.8885 4.81827 52.619 5.51551ZM53.0838 10.7615V14.2477H51.0917H49.0996V10.9939C49.0996 9.20097 49.1992 7.60725 49.332 7.50764C49.4316 7.37484 50.328 7.27523 51.3241 7.27523H53.0838V10.7615ZM55.1424 16.1734C57.8982 17.3687 60.2887 20.4565 60.8532 23.4447L61.0524 24.5404H51.1913H41.3634L41.5626 23.3451C42.1271 19.9253 45.0489 16.7711 48.7675 15.5426C50.0956 15.111 53.4823 15.443 55.1424 16.1734ZM60.986 26.4329L61.0856 27.1966H51.2909H41.463V26.3665V25.5365L51.1913 25.6029L60.8864 25.7025L60.986 26.4329ZM61.0524 30.3508V32.5089H51.2577H41.463V30.5168V28.5579L44.2188 28.4251C45.7129 28.3919 50.1288 28.2923 54.0135 28.2591L61.0524 28.1926V30.3508ZM13.1747 31.3801C14.204 32.0773 13.8056 32.5089 12.0791 32.5089C11.2822 32.5089 10.5517 32.3761 10.4189 32.2101C10.2197 31.8781 11.4814 30.8488 12.0791 30.8488C12.2783 30.8488 12.7763 31.0812 13.1747 31.3801ZM91.2996 31.1809C92.5613 31.8781 92.0633 32.5089 90.2703 32.5089C88.4774 32.5089 88.2118 32.1769 89.3407 31.3801C90.2039 30.7492 90.4364 30.7492 91.2996 31.1809ZM13.9052 36.8252V40.1455H11.913H9.92091V36.8252V33.505H11.913H13.9052V36.8252ZM42.7911 39.4814V45.4578H40.8322H38.8733L38.7405 41.1747C38.6741 37.6553 38.5412 36.792 38.0764 36.2608C37.7444 35.8956 37.4788 35.4971 37.4788 35.3975C37.4788 34.9659 40.6662 33.5382 41.7287 33.505H42.7911V39.4814ZM58.3962 36.8252V40.1455L51.1913 40.0791L43.9532 39.9794L43.8536 37.1905C43.7872 35.6632 43.8204 34.2023 43.92 33.9366C44.0528 33.6046 45.5801 33.505 51.2577 33.505H58.3962V36.8252ZM63.2105 34.4015C64.8374 35.1983 65.5347 35.8292 64.771 35.8292C64.0738 35.8292 63.7085 37.7549 63.7085 41.4735V45.4578H61.7164H59.7243V39.4814V33.505H60.5543C60.986 33.505 62.1812 33.9034 63.2105 34.4015ZM92.2625 36.8252V40.1455H90.2703H88.2782V36.8252V33.505H90.2703H92.2625V36.8252ZM68.058 36.46C68.8217 37.0577 68.8549 37.3565 68.9877 41.3075L69.0873 45.491L66.9956 45.3914L64.8706 45.2918L64.771 41.3739C64.6714 37.6221 64.7046 37.4561 65.5015 36.6592C66.4975 35.6632 67.0288 35.63 68.058 36.46ZM36.8811 36.7256C37.4124 37.1905 37.4788 37.8213 37.4788 41.3739V45.4578H35.4866H33.4945V41.4735C33.4945 37.9209 33.5609 37.4229 34.1586 36.8252C34.9554 36.0284 36.0511 35.962 36.8811 36.7256ZM16.5614 43.4657V45.491L12.0126 45.3914L7.43074 45.2918L7.33113 43.3661L7.23152 41.4735H11.913H16.5614V43.4657ZM58.3962 43.4657V45.4578L51.1913 45.3914L43.9532 45.2918L43.8536 43.3661L43.754 41.4735H51.0917H58.3962V43.4657ZM94.9187 43.4657V45.4578H90.2703H85.622V43.4657V41.4735H90.2703H94.9187V43.4657ZM16.5614 48.612V50.8034L12.0126 50.7038L7.43074 50.6042L7.33113 48.9773C7.16512 46.3875 7.03231 46.4539 12.0791 46.4539H16.5614V48.612ZM26.3892 47.2839C27.0533 47.948 27.2193 48.4128 27.1197 49.3757L27.0201 50.6042L25.1275 50.7038L23.2018 50.8034V49.3425C23.2018 47.8816 23.6334 47.0183 24.5299 46.6863C25.3932 46.3875 25.526 46.4207 26.3892 47.2839ZM40.135 47.2839C40.135 48.0144 40.0021 48.114 38.8069 48.114H37.4788V49.9401V51.7662H38.8069H40.135V62.889V74.0118H36.8147H33.4945V60.432C33.4945 49.8737 33.5941 46.8191 33.9261 46.6863C34.1253 46.5867 35.6194 46.4871 37.2464 46.4871C40.1017 46.4539 40.135 46.4539 40.135 47.2839ZM61.0524 47.2839V48.114H51.2577H41.463V47.2839V46.4539H51.2577H61.0524V47.2839ZM68.6225 46.8523C68.9213 47.1511 69.0209 50.6706 69.0209 60.6312V74.0118H65.7007H62.3805V62.889V51.7662H63.5425H64.7046V49.9401V48.114H63.5425C62.5133 48.114 62.3805 48.0144 62.3805 47.2839C62.3805 46.4539 62.4137 46.4539 65.3023 46.4539C67.1284 46.4539 68.3569 46.5867 68.6225 46.8523ZM78.4503 47.1511C79.1144 47.6824 79.3136 48.114 79.3136 49.1433V50.4382H77.3215H75.3293V49.1765C75.3293 47.782 75.5285 47.3835 76.4914 46.8523C77.3879 46.3543 77.4211 46.3543 78.4503 47.1511ZM94.9187 48.446V50.4382H90.2703H85.622V48.6784C85.622 47.6824 85.7216 46.7859 85.8545 46.6863C85.9541 46.5535 88.0458 46.4539 90.5028 46.4539H94.9187V48.446ZM63.6421 49.8405L63.5425 50.6042L51.1913 50.7038L38.8069 50.7702V49.9401V49.1101H51.2909H63.7418L63.6421 49.8405ZM16.5614 57.7427V63.7523L12.0126 63.6527L7.43074 63.553L7.33113 58.0747C7.29793 55.0865 7.33113 52.4303 7.39754 52.1979C7.53034 51.8659 8.72563 51.7662 12.0791 51.7662H16.5614V57.7427ZM32.3324 57.7427V63.553L25.1275 63.6527L17.8894 63.7191V57.7427V51.7662L25.1275 51.8327L32.3324 51.9323V57.7427ZM61.0524 62.889V74.0118H59.0602H57.0681V67.2717C57.0681 61.4613 56.9685 60.3988 56.4373 59.2036C54.4783 54.8873 48.4355 54.6548 46.1446 58.7719C45.5137 59.9008 45.4473 60.5316 45.4473 67.0061V74.0118H43.2892H41.131V63.1214C41.131 57.1118 41.2306 52.0983 41.3634 51.9987C41.463 51.8659 45.9453 51.7662 51.3241 51.7662H61.0524V62.889ZM84.626 57.7427V63.7191H77.3215H70.017V57.7427V51.7662H77.3215H84.626V57.7427ZM94.9187 57.7427V63.7191H90.2703H85.622V57.7427V51.7662H90.2703H94.9187V57.7427ZM53.4491 57.5766C53.9803 57.8755 54.7439 58.5727 55.076 59.1703C55.6736 60.1332 55.74 60.8637 55.74 67.1057V74.0118H51.2909H46.875L46.6426 72.9825C46.3106 71.3224 46.4102 61.6605 46.7754 60.432C47.1406 59.1703 48.2363 57.8091 49.2656 57.4106C50.3612 56.9458 52.3866 57.0454 53.4491 57.5766ZM16.5614 69.3634V74.0118H11.913H7.26473V69.5959C7.26473 67.1389 7.36433 65.0471 7.49714 64.9475C7.59675 64.8147 9.68849 64.7151 12.1455 64.7151H16.5614V69.3634ZM32.432 69.4298L32.5316 74.0118H25.1939H17.8894V69.3634V64.7151L25.1275 64.7815L32.3324 64.8811L32.432 69.4298ZM84.5596 69.4298L84.6592 74.0118H77.3215H70.017V69.5959C70.017 67.1389 70.1166 65.0471 70.2494 64.9143C70.3822 64.8147 73.636 64.7483 77.4543 64.7815L84.46 64.8811L84.5596 69.4298ZM94.9187 69.3634V74.0118H90.2703H85.622V69.5959C85.622 67.1389 85.7216 65.0471 85.8545 64.9475C85.9541 64.8147 88.0458 64.7151 90.5028 64.7151H94.9187V69.3634Z" fill="#001A72"/>
</svg>
