<svg width="84" height="75" viewBox="0 0 84 75" fill="none" xmlns="http://www.w3.org/2000/svg">
<path d="M41.4076 2.43503C41.4076 3.8495 41.4076 3.8824 39.0193 5.95477C32.5958 11.5469 30.5095 16.185 32.6233 20.1653C33.0625 21.0206 33.3095 21.7113 33.1723 21.7113C33.0076 21.7113 32.8978 23.4877 32.8978 26.1521V30.5929H33.9958H35.0939V36.514V42.435H34.0507C33.1997 42.435 32.8154 42.6653 31.937 43.7508C31.2782 44.5403 30.6193 45.0666 30.2076 45.0666C29.5762 45.0666 29.5762 45.0337 29.686 42.6653C29.7684 41.3824 29.9331 39.7377 30.0154 39.0469C30.2076 37.8298 30.1527 37.6982 28.8076 36.185C27.6272 34.8692 27.4076 34.4416 27.4076 33.4219C27.4076 32.4679 27.2978 32.2377 26.8586 32.2377C26.3919 32.2377 26.3095 32.4679 26.3095 33.6521C26.3095 34.8692 26.1997 35.1653 25.5958 35.5271C24.3331 36.3495 23.7566 37.6653 23.9762 39.2442C24.0586 40.0008 24.1684 41.5798 24.1958 42.764L24.2507 44.9021L23.235 45.0008C22.2742 45.0995 22.2193 45.1653 22.137 46.3166L22.0546 47.5337H15.0546H8.05464L7.97228 45.4285C7.91738 44.2442 8.02719 43.1587 8.16444 42.9942C8.60366 42.4679 8.5213 40.56 8.02719 39.639C7.78013 39.1785 7.1762 38.5206 6.65464 38.1258C5.83111 37.5337 5.7213 37.3035 5.7213 35.9877C5.7213 34.935 5.6115 34.5403 5.30954 34.5403C5.00758 34.5403 4.89777 34.935 4.89777 35.9877C4.89777 37.2377 4.78797 37.5008 3.93699 38.1916C2.67424 39.2442 2.01542 40.7245 2.28993 41.9745C2.39973 42.5008 2.53699 44.014 2.61934 45.2969L2.7566 47.6982H1.63111H0.505615V59.8692V72.0403H13.4076H26.3095V73.3561V74.6719H41.9566H57.6037V73.3561V72.0403H70.5056H83.4076V59.8692V47.6982H82.4468H81.486V45.3956C81.486 44.1456 81.6233 42.764 81.788 42.3363C82.1998 41.2508 81.486 39.4416 80.2233 38.4219C79.3997 37.764 79.2899 37.5008 79.2899 36.2508C79.2899 35.0995 79.2076 34.8692 78.7409 34.8692C78.2743 34.8692 78.1919 35.0995 78.1919 36.2508C78.1919 37.5008 78.0821 37.764 77.2311 38.389C75.8586 39.4745 75.3096 40.889 75.6939 42.435C75.8586 43.1258 75.9958 44.5732 75.9958 45.6916V47.6982H68.9958H61.9958V46.3824V45.0666H60.8703H59.7448L59.8821 42.6653C59.9645 41.3824 60.1292 39.7377 60.2115 39.0469C60.4037 37.8298 60.3488 37.6982 59.0037 36.185C57.8233 34.8692 57.6037 34.4416 57.6037 33.4219C57.6037 32.5995 57.4939 32.2377 57.1919 32.2377C56.8899 32.2377 56.7801 32.5995 56.7801 33.5206C56.7801 34.639 56.6429 34.9021 55.8468 35.4942C55.3252 35.889 54.7213 36.5469 54.4743 37.0074C53.9801 37.9285 53.8978 39.8363 54.337 40.3627C54.4743 40.5271 54.5841 41.6127 54.5292 42.7969C54.4468 44.7706 54.3919 44.9021 53.7605 45.0008C53.2664 45.0666 52.7723 44.7377 51.9762 43.7508C51.1527 42.7311 50.686 42.435 49.9997 42.435H49.0939V36.514V30.5929H50.0546H51.0154V26.1521C51.0154 21.9087 50.988 21.7113 50.4664 21.7113C49.9448 21.7113 49.9448 21.6456 50.6586 20.3298C51.7017 18.4548 51.7292 15.3956 50.7684 12.9942C49.9448 10.9877 46.5409 6.90871 44.2076 5.0995C42.5605 3.81661 42.5056 3.75082 42.5056 2.36924C42.5056 1.21793 42.4233 0.987663 41.9566 0.987663C41.4899 0.987663 41.4076 1.21793 41.4076 2.43503ZM43.7684 6.28371C45.7448 7.92845 48.2978 10.8561 49.3958 12.6982C51.0703 15.5929 51.0429 18.6521 49.3409 20.6916L48.4899 21.7113H41.8468H35.2037L34.2154 20.4613C32.486 18.3561 32.3213 16.8429 33.5017 14.0469C34.2154 12.3363 37.0154 9.04688 39.6507 6.81003C40.8311 5.79029 41.9017 4.93503 41.9841 4.93503C42.0664 4.93503 42.8625 5.52714 43.7684 6.28371ZM50.1919 26.3166V29.6061H42.0939H33.9958V26.3166V23.0271H42.0939H50.1919V26.3166ZM47.9958 32.5666V34.5403H41.9566H35.9174V32.7969C35.9174 31.81 35.9997 30.9219 36.1095 30.8232C36.1919 30.6916 38.9095 30.5929 42.1488 30.5929H47.9958V32.5666ZM28.7527 37.6324C28.9448 37.8956 29.0546 38.4548 28.9997 38.8824C28.9174 39.5732 28.7801 39.639 26.9135 39.7377C25.2939 39.8035 24.9095 39.7377 24.7723 39.31C24.5252 38.5535 25.1566 37.2706 26.1448 36.5469C26.9409 35.9219 26.9958 35.9219 27.6821 36.514C28.0939 36.8758 28.5605 37.3692 28.7527 37.6324ZM47.9958 39.1456V42.435H41.9566H35.9174V39.1456V35.8561H41.9566H47.9958V39.1456ZM58.9488 37.6324C59.1409 37.8956 59.2507 38.4548 59.1958 38.8824C59.1135 39.5732 58.9762 39.639 57.1645 39.7377C55.5723 39.8035 55.1605 39.7377 55.0233 39.31C54.8037 38.5535 55.435 37.2706 56.3684 36.514C57.137 35.9219 57.1645 35.9219 57.8782 36.514C58.2899 36.8758 58.7566 37.3692 58.9488 37.6324ZM7.25856 40.5271C7.91738 42.0732 7.56052 42.435 5.28209 42.435H3.25071V41.4811C3.25071 40.7903 3.52522 40.2311 4.23895 39.5074C5.19973 38.4877 5.19973 38.4877 6.05071 39.0469C6.48993 39.3758 7.03895 40.0337 7.25856 40.5271ZM79.9762 39.6061C80.6899 40.4285 80.9645 40.9877 80.8821 41.514C80.7998 42.2377 80.6899 42.2706 78.7409 42.2706C76.8194 42.2706 76.6821 42.2377 76.5997 41.514C76.5174 40.7574 78.0821 38.4877 78.686 38.4877C78.8507 38.4877 79.4272 38.9811 79.9762 39.6061ZM28.5056 43.0929V45.0666H26.8586H25.2115V43.0929V41.1192H26.8586H28.5056V43.0929ZM58.7017 43.0929V45.0666H57.0546H55.4076V43.0929V41.1192H57.0546H58.7017V43.0929ZM51.8664 45.2969C52.7448 46.3166 53.486 47.2706 53.486 47.435C53.486 47.5666 48.2703 47.6982 41.9017 47.6982H30.3174L32.0742 45.56L33.8311 43.4219H42.039H50.2194L51.8664 45.2969ZM7.09385 45.7245V47.7311L5.39189 47.6324L3.66248 47.5337L3.58013 45.6258L3.49777 43.7508H5.30954H7.09385V45.7245ZM80.388 45.7245V47.6982H78.7409H77.0939V45.7245V43.7508H78.7409H80.388V45.7245ZM29.0546 47.5337L28.1213 48.685H29.4115H30.7017V58.5535V68.4219H29.6037H28.5056V69.7377V71.0863L25.8429 70.9877L23.1527 70.889L23.0703 58.6192L23.0154 46.3824H26.5017H29.988L29.0546 47.5337ZM60.8978 58.7179V71.0863L58.235 70.9877L55.5448 70.889L55.4625 69.6719C55.3801 68.5206 55.3252 68.4548 54.3644 68.3561L53.3488 68.2574V58.5535V48.8495L54.6939 48.7508L56.039 48.6521L55.1056 47.5008L54.1997 46.3824H57.5488H60.8978V58.7179ZM22.137 52.0403L22.2193 55.264H21.5056C20.9017 55.264 20.8193 55.1324 20.8193 53.9811C20.8193 52.8956 20.6272 52.5337 19.5566 51.3166L18.2939 49.935L17.5801 50.7245C16.0703 52.3692 15.6311 53.1258 15.6037 54.1785C15.6037 55.0337 15.4939 55.264 15.0546 55.264C14.6154 55.264 14.5056 55.0337 14.5056 54.2442C14.5056 53.1587 13.984 52.1719 12.639 50.8232L11.788 49.9679L10.5252 51.3495C9.48209 52.5337 9.28993 52.8956 9.28993 53.9811C9.28993 55.1324 9.20758 55.264 8.60366 55.264C7.99973 55.264 7.91738 55.1324 7.91738 54.1127C7.91738 53.3232 7.67032 52.6324 7.0664 51.81C5.6115 49.8363 5.41934 49.8363 3.96444 51.514C2.94875 52.7311 2.70169 53.2574 2.70169 54.1456C2.70169 55.0337 2.59189 55.264 2.15267 55.264C1.63111 55.264 1.60365 55.0337 1.60365 51.9745V48.685L11.8429 48.7508L22.0546 48.8495L22.137 52.0403ZM52.3331 58.4548C52.2507 67.9942 52.2233 68.2574 51.7017 68.2574C51.1801 68.2574 51.1527 67.9942 51.0703 60.4285L51.0154 52.6324H49.5056H47.9958V60.5271V68.4219H46.3488H44.7017V60.5271V52.6324H42.0939H39.486L39.4311 60.4285L39.3488 68.2574H37.7017H36.0546L35.9723 60.4285L35.9174 52.6324H34.4076H32.8978V60.5271C32.8978 68.1916 32.8703 68.4219 32.3488 68.4219C31.7997 68.4219 31.7997 68.1916 31.7997 58.5535V48.685H42.0939H52.388L52.3331 58.4548ZM82.5292 52.2048C82.6115 55.4285 82.5841 55.5929 82.035 55.5929C81.5958 55.5929 81.486 55.3956 81.486 54.4087C81.486 53.4548 81.239 52.9285 80.1409 51.5469L78.7684 49.8363L77.3958 51.4811C76.2703 52.764 75.9958 53.3232 75.9958 54.1785C75.9958 55.0337 75.886 55.264 75.4468 55.264C75.0076 55.264 74.8978 55.0337 74.8978 54.1127C74.8978 53.1587 74.6507 52.6653 73.6625 51.4482C72.2625 49.7706 72.0154 49.8035 70.5331 51.81C69.9292 52.6324 69.6821 53.3232 69.6821 54.1127C69.6821 55.1324 69.5997 55.264 68.9958 55.264C68.3919 55.264 68.3095 55.1324 68.3095 53.9811C68.3095 52.8956 68.1174 52.5337 67.0743 51.3495L65.8115 49.9679L64.9605 50.8232C63.6154 52.1719 63.0939 53.1587 63.0939 54.2442C63.0939 55.0337 62.9841 55.264 62.5448 55.264C62.0233 55.264 61.9958 55.0337 61.9958 51.9745V48.685L72.235 48.7508L82.4468 48.8495L82.5292 52.2048ZM6.38013 52.6653C6.76444 53.2245 7.09385 54.014 7.09385 54.4745C7.09385 55.2311 7.0115 55.264 5.30954 55.264C3.60758 55.264 3.52522 55.2311 3.52522 54.4745C3.52522 53.685 4.87032 51.6456 5.39189 51.6456C5.5566 51.6456 5.99581 52.1061 6.38013 52.6653ZM12.639 52.5337C13.1331 53.0929 13.4076 53.7508 13.4076 54.3429C13.4076 55.264 13.3801 55.264 11.7605 55.264C10.1684 55.264 10.1135 55.2311 10.1135 54.3758C10.1135 53.6192 11.2664 51.6456 11.7331 51.6456C11.8154 51.6456 12.2272 52.0403 12.639 52.5337ZM19.2272 52.5337C19.7213 53.0929 19.9958 53.7508 19.9958 54.3429C19.9958 55.264 19.9684 55.264 18.3488 55.264C16.7566 55.264 16.7017 55.2311 16.7017 54.3758C16.7017 53.6192 17.8546 51.6456 18.3213 51.6456C18.4037 51.6456 18.8154 52.0403 19.2272 52.5337ZM67.1017 53.1258C67.3213 53.5535 67.486 54.2442 67.4311 54.6719C67.3488 55.3627 67.1841 55.4285 65.7841 55.5271L64.1919 55.6258V54.5732C64.1919 53.1258 65.4272 51.514 66.1409 52.0074C66.4429 52.1719 66.8547 52.6982 67.1017 53.1258ZM73.7998 54.5074V55.6258L72.235 55.5271C70.7252 55.4285 70.6429 55.3956 70.5605 54.5074C70.5056 53.8495 70.6978 53.3232 71.3292 52.5995L72.1801 51.5469L73.0037 52.5008C73.5801 53.1587 73.7998 53.7179 73.7998 54.5074ZM79.6743 52.5995C80.2233 53.2903 80.4154 53.8166 80.3331 54.4745C80.2507 55.3956 80.1958 55.4285 78.686 55.5271L77.0939 55.6258V54.5732C77.0939 53.5863 78.1919 51.6456 78.7409 51.6456C78.8233 51.6456 79.2625 52.0732 79.6743 52.5995ZM35.039 61.0863C34.9566 67.5995 34.9017 68.2574 34.4899 68.3561C34.0233 68.4548 33.9958 67.9613 33.9958 61.2179C33.9958 54.1456 34.0233 53.9482 34.5448 53.9482C35.0939 53.9482 35.0939 54.1127 35.039 61.0863ZM43.6037 61.185V68.4548L42.039 68.3561L40.4468 68.2574L40.3644 61.0863L40.3095 53.9482H41.9566H43.6037V61.185ZM50.137 61.0863C50.0546 67.5995 49.9997 68.2574 49.588 68.3561C49.1213 68.4548 49.0939 67.9613 49.0939 61.2179C49.0939 54.1456 49.1213 53.9482 49.6429 53.9482C50.1919 53.9482 50.1919 54.1127 50.137 61.0863ZM22.137 59.7706C22.0546 62.7311 21.9997 62.9942 21.5056 62.9942C21.0664 62.9942 20.9291 62.7311 20.8742 61.81C20.8193 60.9219 20.4899 60.2969 19.5841 59.2113C18.4037 57.8298 18.3762 57.7969 17.6899 58.3232C16.5919 59.2113 15.6037 60.9877 15.6037 62.1061C15.6037 62.9285 15.4939 63.1587 15.0546 63.1587C14.6154 63.1587 14.5056 62.9285 14.5056 61.9745C14.5056 60.9877 14.286 60.4942 13.2978 59.3429C12.639 58.5535 11.9801 57.8956 11.8429 57.8956C11.7056 57.8956 11.1017 58.4877 10.4978 59.1785C9.72915 60.0995 9.39973 60.8561 9.28993 61.7442C9.18013 62.7311 9.04287 62.9942 8.60366 62.9942C8.16444 62.9942 8.02719 62.7311 7.91738 61.7442C7.80758 60.8561 7.47817 60.0995 6.70954 59.1785C6.10562 58.4877 5.47424 57.8956 5.30954 57.8956C5.11738 57.8956 4.45856 58.5535 3.82718 59.3758C2.94875 60.5271 2.70169 61.0863 2.70169 62.0074C2.70169 62.9285 2.59189 63.1587 2.15267 63.1587C1.63111 63.1587 1.60365 62.9285 1.60365 59.8692V56.5798H11.8978H22.2193L22.137 59.7706ZM82.5292 59.935C82.4468 62.8627 82.3919 63.3232 81.9801 63.4219C81.5684 63.5206 81.486 63.2903 81.486 62.2377C81.486 61.1192 81.2939 60.6916 80.2507 59.4087C79.5919 58.5863 78.9056 57.8956 78.7409 57.8956C78.5762 57.8956 77.8899 58.5535 77.2311 59.3758C76.2429 60.56 75.9958 61.0535 75.9958 62.0074C75.9958 62.9285 75.886 63.1587 75.4468 63.1587C75.0076 63.1587 74.8978 62.9285 74.8978 61.9087C74.8978 60.889 74.7056 60.4285 73.7174 59.2771C73.086 58.5206 72.4272 57.8956 72.2625 57.8956C72.1252 57.8956 71.4664 58.5206 70.835 59.31C69.9017 60.4613 69.6821 60.9548 69.6821 61.9416C69.6821 63.0271 69.5997 63.1587 68.9958 63.1587C68.3645 63.1587 68.3095 63.0271 68.3095 61.8429C68.3095 60.7245 68.1448 60.3298 67.1841 59.2113C66.5527 58.4877 65.9213 57.8956 65.7566 57.8956C65.6194 57.8956 64.9605 58.5535 64.3017 59.3429C63.3135 60.4942 63.0939 60.9877 63.0939 61.9745C63.0939 62.9285 62.9841 63.1587 62.5448 63.1587C62.0233 63.1587 61.9958 62.9285 61.9958 59.8692V56.5798H72.2899H82.6115L82.5292 59.935ZM7.09385 62.2377V63.1916L5.39189 63.0929C3.85464 62.9942 3.66248 62.8956 3.58013 62.2706C3.52522 61.8429 3.82718 61.1192 4.3762 60.3627L5.25464 59.1785L6.16052 60.2311C6.79189 60.9548 7.09385 61.6127 7.09385 62.2377ZM19.9958 62.2377C19.9958 63.1587 19.9684 63.1587 18.3488 63.1587H16.7017V62.1061C16.7017 61.4153 16.9488 60.7574 17.4429 60.1324L18.184 59.2113L19.0899 60.264C19.6939 60.9548 19.9958 61.6127 19.9958 62.2377ZM12.7762 60.264C13.188 60.7245 13.4076 61.3495 13.4076 62.0732V63.1587H11.7605C10.1684 63.1587 10.1135 63.1258 10.1135 62.2706C10.1135 61.4153 11.2939 59.5403 11.8703 59.5403C12.0076 59.5403 12.4193 59.8692 12.7762 60.264ZM66.7723 60.4942C67.3213 61.185 67.5135 61.7113 67.4311 62.3692C67.3488 63.2903 67.2939 63.3232 65.7841 63.4219L64.1919 63.5206V62.2048C64.1919 61.185 64.3566 60.7574 64.9056 60.2311C65.839 59.3429 65.8664 59.3429 66.7723 60.4942ZM73.1684 60.264C73.6076 60.7574 73.7998 61.3495 73.7998 62.2377V63.5206L72.235 63.4219C70.6978 63.3232 70.6429 63.2903 70.5605 62.3692C70.4782 61.7113 70.6703 61.185 71.2194 60.4942C72.1252 59.3429 72.3448 59.3429 73.1684 60.264ZM79.6194 60.4285C80.1684 61.0535 80.388 61.6456 80.388 62.4021V63.4877H78.7409H77.0939V62.3692C77.0939 61.6127 77.3135 60.9877 77.8076 60.3956C78.2194 59.935 78.6037 59.5403 78.686 59.5403C78.7684 59.5403 79.2076 59.935 79.6194 60.4285ZM22.0546 67.5995C22.0546 70.6587 22.0272 70.889 21.5056 70.889C21.0664 70.889 20.9291 70.6258 20.8742 69.5074C20.7919 68.3561 20.5723 67.9285 19.5291 66.7771L18.2939 65.3956L16.9488 66.9745C15.8782 68.2245 15.6037 68.7837 15.6037 69.639C15.6037 70.4942 15.4939 70.7245 15.0546 70.7245C14.6154 70.7245 14.5056 70.4942 14.5056 69.639C14.5056 68.7837 14.2311 68.2245 13.1605 66.9745L11.8154 65.3956L10.5527 66.8429C9.50954 68.06 9.28993 68.5206 9.28993 69.5074C9.28993 70.5929 9.20758 70.7245 8.60366 70.7245C7.99973 70.7245 7.91738 70.5929 7.91738 69.6061C7.91738 68.4219 7.25856 67.1719 6.02326 66.1521L5.25464 65.4942L3.96444 66.9745C2.94875 68.1916 2.70169 68.7179 2.70169 69.6061C2.70169 70.4942 2.59189 70.7245 2.15267 70.7245C1.63111 70.7245 1.60365 70.4942 1.60365 67.435V64.1456L11.8429 64.2113L22.0546 64.31V67.5995ZM82.5292 67.6653C82.4468 70.4285 82.3645 70.889 81.9801 70.9877C81.5684 71.0863 81.486 70.8561 81.486 69.8692C81.486 68.8495 81.2664 68.389 80.086 66.9745L78.686 65.2969L77.3409 67.0074C76.3252 68.2903 75.9958 68.9482 75.9958 69.7048C75.9958 70.4942 75.886 70.7245 75.4468 70.7245C75.0076 70.7245 74.8978 70.4942 74.8978 69.6061C74.8978 68.685 74.6507 68.1587 73.635 66.9745L72.3997 65.4613L71.4664 66.3166C70.2586 67.4021 69.6821 68.5206 69.6821 69.7377C69.6821 70.56 69.5723 70.7245 68.9958 70.7245C68.3919 70.7245 68.3095 70.5929 68.3095 69.4416C68.3095 68.3561 68.1174 67.9942 67.0468 66.7771L65.7841 65.3956L64.439 66.9745C63.3684 68.2245 63.0939 68.7837 63.0939 69.639C63.0939 70.4942 62.9841 70.7245 62.5448 70.7245C62.0233 70.7245 61.9958 70.4942 61.9958 67.5995V64.4745H72.2899H82.6115L82.5292 67.6653ZM6.65464 68.4877C6.9017 68.8824 7.09385 69.5403 7.09385 69.9679C7.09385 70.56 6.9017 70.7245 5.88601 70.889C4.2115 71.185 3.68993 71.0206 3.58013 70.0995C3.49777 69.5732 3.77228 68.9811 4.3762 68.2245C5.33699 67.0403 5.85856 67.1061 6.65464 68.4877ZM12.639 67.9942C13.5997 69.1127 13.6821 70.56 12.8037 70.8561C12.4468 70.9548 11.7056 71.0535 11.1566 71.0535C10.1958 71.0535 10.1135 70.9877 10.1135 70.0995C10.1135 69.2442 11.239 67.1061 11.7056 67.1061C11.788 67.1061 12.2272 67.5008 12.639 67.9942ZM19.2272 67.9942C19.6939 68.5206 19.9958 69.2113 19.9958 69.7706C19.9958 70.4942 19.8311 70.6916 19.1448 70.8561C18.6782 70.9548 17.937 71.0535 17.4978 71.0535C16.784 71.0535 16.7017 70.9548 16.7017 70.0008C16.7017 69.0798 17.7997 67.1061 18.3213 67.1061C18.4037 67.1061 18.8154 67.5008 19.2272 67.9942ZM67.1841 68.8824C67.8703 70.3627 67.5135 70.889 65.7566 70.9877L64.1919 71.0863V70.0337C64.1919 69.31 64.439 68.6521 64.9056 68.06C65.5645 67.2048 65.6743 67.1719 66.2507 67.6324C66.5801 67.8956 66.9919 68.4548 67.1841 68.8824ZM73.7998 69.9679V71.0863L72.235 70.9877C70.7527 70.889 70.6429 70.8232 70.5605 70.0337C70.5056 69.4087 70.7252 68.8495 71.3566 68.1258L72.235 67.0732L73.0037 67.9613C73.5801 68.6192 73.7998 69.1785 73.7998 69.9679ZM79.7841 68.1916C80.1684 68.6521 80.388 69.2442 80.388 69.9679V71.0535H78.7409H77.0939V70.0008C77.0939 69.31 77.3409 68.6521 77.835 68.0271C78.5762 67.0732 78.7684 67.1061 79.7841 68.1916ZM54.5841 70.0666C54.5841 70.7245 54.3919 70.7245 42.0939 70.7245C29.7958 70.7245 29.6037 70.7245 29.6037 70.0666C29.6037 69.4087 29.7958 69.4087 42.0939 69.4087C54.3919 69.4087 54.5841 69.4087 54.5841 70.0666ZM56.6429 72.8627C56.6429 73.5206 56.4507 73.5206 42.0939 73.5206H27.5448L27.4625 72.764L27.3801 72.0403L42.0115 72.1061C56.4233 72.2048 56.6429 72.2048 56.6429 72.8627Z" fill="#001A72"/>
</svg>
