<svg width="75" height="66" viewBox="0 0 75 66" fill="none" xmlns="http://www.w3.org/2000/svg">
<path d="M23.8965 1.64432C23.8965 2.14078 23.5512 2.78326 22.9099 3.51335L21.9232 4.62308V15.1656V25.7372H12.2045H2.4612L2.3872 26.8178C2.3132 27.7815 2.21453 27.9275 1.62253 28.0151C0.6852 28.1611 0.734534 28.9496 1.69653 28.9496H2.43653V31.87V34.7903H1.69653C1.1292 34.7903 0.956534 34.9072 0.956534 35.3744C0.956534 35.8417 1.1292 35.9585 1.69653 35.9585H2.43653V50.2682V64.578H1.69653C1.1292 64.578 0.956534 64.6948 0.956534 65.162C0.956534 65.7461 1.1292 65.7461 37.9565 65.7461C74.7839 65.7461 74.9565 65.7461 74.9565 65.162C74.9565 64.6948 74.7839 64.578 74.2165 64.578H73.4765V50.2682V35.9585H74.2165C74.7839 35.9585 74.9565 35.8417 74.9565 35.3744C74.9565 34.9072 74.7839 34.7903 74.2165 34.7903H73.4765V31.87V28.9496H74.2165C75.1785 28.9496 75.2279 28.1611 74.2905 28.0151C73.6985 27.9275 73.5999 27.7815 73.5259 26.8178L73.4519 25.7372H63.7085H53.9899V15.1656V4.62308L53.0032 3.51335C52.3619 2.78326 52.0165 2.14078 52.0165 1.64432C52.0165 1.11866 51.8932 0.91423 51.5232 0.91423C51.1285 0.91423 51.0299 1.11866 51.0299 1.93636C51.0299 2.49122 50.9065 2.95848 50.7832 2.95848C50.6352 2.95848 50.2405 3.27972 49.9199 3.68857C49.3032 4.38945 49.3032 4.47706 49.3032 9.23724V14.0558H37.9565H26.6099V9.23724C26.6099 4.47706 26.6099 4.38945 25.9932 3.68857C25.6725 3.27972 25.2779 2.95848 25.1299 2.95848C25.0065 2.95848 24.8832 2.49122 24.8832 1.93636C24.8832 1.11866 24.7845 0.91423 24.3899 0.91423C24.0199 0.91423 23.8965 1.11866 23.8965 1.64432ZM25.3765 4.27264C25.8205 4.91512 25.5985 5.06113 24.1185 4.94432C22.8852 4.85671 22.8359 4.82751 23.2552 4.33105C23.7979 3.71777 24.9572 3.68857 25.3765 4.27264ZM52.6579 4.33105C53.0772 4.82751 53.0279 4.85671 51.7945 4.94432C50.3145 5.06113 50.0925 4.91512 50.5365 4.27264C50.9559 3.68857 52.1152 3.71777 52.6579 4.33105ZM25.8205 11.1939L25.8699 16.3921H24.3899H22.9099V11.1355V5.84963L24.3405 5.93724L25.7465 6.02485L25.8205 11.1939ZM53.0032 11.1355V16.3921H51.5232H50.0432V11.3399C50.0432 8.53635 50.1172 6.17087 50.2159 6.08326C50.2899 5.96645 50.9559 5.87883 51.6959 5.87883H53.0032V11.1355ZM49.3032 15.808C49.3032 16.3921 49.1305 16.3921 37.9565 16.3921C26.7825 16.3921 26.6099 16.3921 26.6099 15.808C26.6099 15.224 26.7825 15.224 37.9565 15.224C49.1305 15.224 49.3032 15.224 49.3032 15.808ZM25.8205 21.5611L25.7465 25.5912L24.3405 25.6788L22.9099 25.7664V21.6487V17.5602H24.3899H25.8945L25.8205 21.5611ZM49.2539 21.5611L49.1799 25.5912H37.9565H26.7332L26.6592 21.5611L26.5852 17.5602H37.9565H49.3279L49.2539 21.5611ZM53.0032 21.6487V25.7664L51.5972 25.6788L50.1665 25.5912L50.0925 21.5611L50.0185 17.5602H51.5232H53.0032V21.6487ZM19.9005 27.2558L19.8265 27.9275L11.6372 28.0151L3.4232 28.0735V27.3434V26.6133H11.7112H19.9745L19.9005 27.2558ZM27.8432 30.7018V34.7903H24.3899H20.9365V30.7018V26.6133H24.3899H27.8432V30.7018ZM29.7672 28.716C29.8165 30.2346 29.9152 30.7018 30.1865 30.7018C30.4825 30.7018 30.5565 30.2638 30.5565 28.6576V26.6133H32.0365H33.5165V28.6576C33.5165 30.4974 33.5659 30.7018 34.0099 30.7018C34.4539 30.7018 34.5032 30.4974 34.5032 28.6576V26.6133H35.9832H37.4632V28.6576C37.4632 30.4974 37.5125 30.7018 37.9565 30.7018C38.4005 30.7018 38.4499 30.4974 38.4499 28.6576V26.6133H39.9299H41.4099V28.6576C41.4099 30.4974 41.4592 30.7018 41.9032 30.7018C42.3472 30.7018 42.3965 30.4974 42.3965 28.6576V26.6133H43.8765H45.3565V28.6576C45.3565 30.2638 45.4305 30.7018 45.7265 30.7018C45.9979 30.7018 46.0965 30.2346 46.1459 28.716C46.2199 26.9346 46.2692 26.7594 46.7872 26.6718C47.3299 26.5841 47.3299 26.5841 47.3299 30.6726V34.7903H37.9565H28.5832V30.6726C28.5832 26.5841 28.5832 26.5841 29.1505 26.6718C29.6439 26.7594 29.6932 26.9346 29.7672 28.716ZM54.9765 30.7018V34.7903H51.5232H48.0699V30.7018V26.6133H51.5232H54.9765V30.7018ZM72.4899 27.3434V28.0735L64.3005 28.0151L56.0865 27.9275L56.0125 27.2558L55.9385 26.6133H64.2019H72.4899V27.3434ZM19.9499 31.87V34.7903H11.6865H3.4232V31.87V28.9496H11.6865H19.9499V31.87ZM72.4899 31.87V34.7903H64.2265H55.9632V31.87V28.9496H64.2265H72.4899V31.87ZM4.40987 37.7107C4.40987 39.2585 4.36053 39.4629 3.91653 39.4629C3.47253 39.4629 3.4232 39.2585 3.4232 37.7107C3.4232 36.1629 3.47253 35.9585 3.91653 35.9585C4.36053 35.9585 4.40987 36.1629 4.40987 37.7107ZM8.35653 37.7107V39.4629H6.87653H5.39653V37.7107V35.9585H6.87653H8.35653V37.7107ZM12.2539 37.6231L12.1799 39.3169H10.6999H9.21987L9.14587 37.6231L9.07187 35.9585H10.6999H12.3279L12.2539 37.6231ZM16.0032 37.7107V39.4629H14.5232H13.0432V37.7107V35.9585H14.5232H16.0032V37.7107ZM19.9499 37.7107V39.4629H18.4699H16.9899V37.7107V35.9585H18.4699H19.9499V37.7107ZM27.8432 44.5735V53.1886H24.3899H20.9365V44.5735V35.9585H24.3899H27.8432V44.5735ZM47.3299 50.2682V64.578H45.7265H44.1479L44.0739 53.9771L43.9999 43.4054L43.2599 42.0912C42.8405 41.3903 41.9772 40.3974 41.3112 39.901C40.2012 39.1125 39.9052 39.0249 37.9812 39.0249C35.6132 39.0249 34.8485 39.3753 33.4425 41.0399C31.7899 42.9965 31.7899 42.9673 31.7899 54.3275V64.578H30.1865H28.5832V50.2682V35.9585H37.9565H47.3299V50.2682ZM54.9765 44.5735V53.1886H51.5232H48.0699V44.5735V35.9585H51.5232H54.9765V44.5735ZM56.9499 37.7107C56.9499 39.2585 56.9005 39.4629 56.4565 39.4629C56.0125 39.4629 55.9632 39.2585 55.9632 37.7107C55.9632 36.1629 56.0125 35.9585 56.4565 35.9585C56.9005 35.9585 56.9499 36.1629 56.9499 37.7107ZM60.8965 37.7107V39.4629H59.4165H57.9365V37.7107V35.9585H59.4165H60.8965V37.7107ZM64.8432 37.7107V39.4629H63.3632H61.8832V37.7107V35.9585H63.3632H64.8432V37.7107ZM68.7405 37.6231L68.6665 39.3169L67.1372 39.4045L65.5832 39.4921V37.7107V35.9585H67.1865H68.8145L68.7405 37.6231ZM72.4899 37.7107V39.4629H71.0099H69.5299V37.7107V35.9585H71.0099H72.4899V37.7107ZM40.6699 40.7187C41.4099 41.1859 42.0019 41.8576 42.5199 42.8213L43.2599 44.2231L43.3339 54.4151L43.4079 64.578H37.9565H32.5299V54.7072V44.8364L33.1712 43.3178C34.5525 40.047 37.7345 38.9372 40.6699 40.7187ZM19.9499 46.7638V53.1886H19.1852C18.5932 53.1886 18.4452 53.3054 18.5192 53.685C18.5685 54.0063 18.8645 54.2399 19.2839 54.2983L19.9499 54.3859V59.4965V64.578H18.4699H16.9899V57.0434C16.9899 52.7213 16.8665 49.0709 16.7185 48.4284C16.1512 46.0045 13.9805 44.1647 11.6372 44.1355C10.0585 44.1355 9.39253 44.4275 8.2332 45.6541C6.48187 47.4647 6.3832 47.9611 6.3832 56.7514V64.578H4.9032H3.4232V52.4585V40.339H11.6865H19.9499V46.7638ZM72.4899 52.4585V64.578H71.0099H69.5299V56.7514C69.5299 47.9611 69.4312 47.4647 67.6799 45.6541C66.5205 44.4275 65.8545 44.1355 64.2759 44.1355C61.9325 44.1647 59.7619 46.0045 59.1945 48.4284C59.0465 49.0709 58.9232 52.7213 58.9232 57.0434V64.578H57.4432H55.9632V59.4965V54.3859L56.6292 54.2983C57.0485 54.2399 57.3445 54.0063 57.3939 53.685C57.4679 53.3054 57.3199 53.1886 56.7279 53.1886H55.9632V46.7638V40.339H64.2265H72.4899V52.4585ZM13.4132 45.5664C15.0659 46.4718 16.0032 48.078 16.0032 50.0054V50.8523H11.6865H7.36987V49.7426C7.36987 48.4284 8.0112 47.085 9.14587 46.0921C10.4779 44.8948 11.8839 44.7195 13.4132 45.5664ZM66.7425 46.0629C67.9019 47.085 68.5432 48.4284 68.5432 49.7426V50.8523H64.2265H59.9099V50.0054C59.9099 46.0629 64.0785 43.6682 66.7425 46.0629ZM16.0032 58.2992C16.0032 64.3151 15.9785 64.578 15.5345 64.578C15.0905 64.578 15.0412 64.2859 14.9672 60.0514L14.8932 55.5249L14.0052 54.4735C12.3772 52.5461 9.8612 52.9257 8.80053 55.262C8.43053 56.0797 8.35653 56.9266 8.35653 60.4018V64.578H7.73987H7.1232V58.2992V52.0204H11.5632H16.0032V58.2992ZM68.7899 58.2992V64.578H68.1732H67.5565V60.3142C67.5565 56.5178 67.5072 55.9337 67.0632 55.0868C65.9285 52.8965 63.4865 52.6337 61.9079 54.4735L61.0199 55.5249L60.9459 60.0514C60.8719 64.2859 60.8225 64.578 60.3785 64.578C59.9345 64.578 59.9099 64.3151 59.9099 58.2992V52.0204H64.3499H68.7899V58.2992ZM13.3639 55.1744C14.0299 55.9921 14.0299 56.0213 14.0299 60.285V64.578H11.5632H9.09653V60.8107C9.09653 58.7372 9.21987 56.6638 9.36787 56.1965C9.98453 54.2399 12.1552 53.685 13.3639 55.1744ZM27.7939 56.0213L27.7199 57.7151L24.3405 57.8027L20.9365 57.8903V56.1089V54.3567H24.3899H27.8679L27.7939 56.0213ZM54.9765 56.1089V57.8903L51.5972 57.8027L48.1932 57.7151L48.1192 56.0213L48.0452 54.3567H51.5232H54.9765V56.1089ZM65.8052 54.97C66.6685 55.9337 66.8165 56.7514 66.8165 60.8107V64.578H64.3499H61.8832V60.2266C61.8832 55.9337 61.8832 55.8753 62.5245 55.116C63.3632 54.1231 64.9665 54.0647 65.8052 54.97ZM27.7939 61.716L27.8679 64.578H24.3899H20.9365V61.6576V58.708L24.3405 58.7957L27.7199 58.8833L27.7939 61.716ZM54.9765 61.6576V64.578H51.5232H48.0699V61.862C48.0699 60.3434 48.1439 59.0293 48.2425 58.9417C48.3165 58.8249 49.8705 58.7372 51.6959 58.7372H54.9765V61.6576Z" fill="#001A72"/>
</svg>
