<svg width="81" height="74" viewBox="0 0 81 74" fill="none" xmlns="http://www.w3.org/2000/svg">
<path d="M29.132 2.26813L28.0929 3.56017H25.4817H22.8705V5.33672V7.11327H23.8031H24.7357V13.8965V20.6796H17.3284H9.92118L9.01526 21.8102C8.40243 22.5854 7.86954 22.9407 7.36329 22.9407C6.67053 22.9407 6.61724 23.0376 6.61724 24.2327C6.61724 25.4925 6.59059 25.5248 5.68467 25.5248C4.77875 25.5248 4.69882 25.6217 3.76625 27.9473C2.80704 30.273 2.75375 30.3376 1.7146 30.4345C0.249144 30.5637 0.195854 31.4681 1.63467 31.5973L2.62053 31.6942V52.5283V73.3301H40.4561H78.2916V52.5283V31.6942L79.3041 31.5973C80.7163 31.4681 80.663 30.5637 79.1975 30.4345C78.1584 30.3376 78.1051 30.273 77.1459 27.9473C76.2133 25.6217 76.1334 25.5248 75.2274 25.5248C74.3215 25.5248 74.2949 25.4925 74.2949 24.2327C74.2949 23.0376 74.2416 22.9407 73.5488 22.9407C73.0426 22.9407 72.5097 22.5854 71.8969 21.8102L70.9909 20.6796H63.5837H56.1765V13.8965V7.11327H57.109H58.0416V5.33672V3.56017H55.4304H52.8192L51.7801 2.26813L50.7409 0.976097H40.4561H30.1712L29.132 2.26813ZM50.8475 2.75264L51.4603 3.56017H40.4561H29.4518L30.0646 2.75264L30.6774 1.94512H40.4561H50.2347L50.8475 2.75264ZM57.2422 5.17521C57.2422 5.82123 57.0557 5.82123 40.4561 5.82123C23.8564 5.82123 23.6699 5.82123 23.6699 5.17521C23.6699 4.52919 23.8564 4.52919 40.4561 4.52919C57.0557 4.52919 57.2422 4.52919 57.2422 5.17521ZM55.1107 13.8965V20.6796H40.4561H25.8014V13.8965V7.11327H40.4561H55.1107V13.8965ZM26.4676 22.2947C26.9472 22.9407 26.9205 22.9407 18.0745 22.9407C9.22842 22.9407 9.20178 22.9407 9.68138 22.2947C10.1343 21.681 10.5074 21.6487 18.0745 21.6487C25.6416 21.6487 26.0146 21.681 26.4676 22.2947ZM53.2455 21.9071C53.2455 22.4562 52.5794 22.9407 51.86 22.9407C51.1672 22.9407 51.114 23.0376 51.114 24.2327V25.5248H40.4561H29.7982V24.2327C29.7982 23.0376 29.7449 22.9407 29.0521 22.9407C28.3327 22.9407 27.6666 22.4562 27.6666 21.9071C27.6666 21.7779 33.4218 21.6487 40.4561 21.6487C47.4903 21.6487 53.2455 21.7779 53.2455 21.9071ZM71.2307 22.2947C71.7103 22.9407 71.6837 22.9407 62.8376 22.9407C53.9916 22.9407 53.9649 22.9407 54.4445 22.2947C54.8975 21.681 55.2705 21.6487 62.8376 21.6487C70.4047 21.6487 70.7778 21.681 71.2307 22.2947ZM28.7324 27.3013V30.3699H27.933C27.187 30.3699 27.1337 30.273 27.1337 29.2394C27.1337 28.1411 26.6541 26.4938 26.3343 26.4938C26.0413 26.4938 25.2686 28.7226 25.2686 29.5624C25.2686 30.3376 25.1886 30.3699 23.6699 30.3699H22.0712V29.2394C22.0712 28.1411 21.5916 26.4938 21.2718 26.4938C20.9788 26.4938 20.2061 28.7226 20.2061 29.5624C20.2061 30.3376 20.1528 30.3699 18.2077 30.3699C16.2626 30.3699 16.2093 30.3376 16.2093 29.5624C16.2093 28.7226 15.4366 26.4938 15.1436 26.4938C14.8505 26.4938 14.0778 28.7226 14.0778 29.5624C14.0778 30.3376 13.9978 30.3699 12.6123 30.3699C11.2268 30.3699 11.1468 30.3376 11.1468 29.5624C11.1468 28.7226 10.3741 26.4938 10.0811 26.4938C9.78796 26.4938 9.01526 28.7226 9.01526 29.5624C9.01526 30.2407 8.88204 30.3699 8.21592 30.3699H7.41658V27.3013V24.2327H18.0745H28.7324V27.3013ZM73.4955 27.3013V30.3699H72.6962C72.0301 30.3699 71.8969 30.2407 71.8969 29.5624C71.8969 28.7226 71.1242 26.4938 70.8311 26.4938C70.538 26.4938 69.7653 28.7226 69.7653 29.5624C69.7653 30.3376 69.6853 30.3699 68.2998 30.3699C66.9143 30.3699 66.8344 30.3376 66.8344 29.5624C66.8344 28.7226 66.0617 26.4938 65.7686 26.4938C65.4755 26.4938 64.7028 28.7226 64.7028 29.5624C64.7028 30.3376 64.6495 30.3699 62.7044 30.3699C60.7593 30.3699 60.7061 30.3376 60.7061 29.5624C60.7061 28.7226 59.9334 26.4938 59.6403 26.4938C59.3205 26.4938 58.8409 28.1411 58.8409 29.2394V30.3699H57.2422C55.7235 30.3699 55.6436 30.3376 55.6436 29.5624C55.6436 28.7226 54.8709 26.4938 54.5778 26.4938C54.258 26.4938 53.7784 28.1411 53.7784 29.2394C53.7784 30.273 53.7251 30.3699 52.9791 30.3699H52.1797V27.3013V24.2327H62.8376H73.4955V27.3013ZM6.56395 28.4964L6.64388 30.3699H5.15178H3.68632L4.48566 28.3995C5.15178 26.8168 5.41822 26.4615 5.89783 26.5584C6.40408 26.6553 6.48401 26.8814 6.56395 28.4964ZM51.114 29.7239V32.954H40.4561H29.7982V29.7239V26.4938H40.4561H51.114V29.7239ZM76.4265 28.4318L77.2258 30.3699H75.7603H74.2949V28.658C74.2949 26.7845 74.4015 26.4938 75.1475 26.4938C75.4672 26.4938 75.8936 27.1398 76.4265 28.4318ZM6.61724 51.85V72.038H5.01855H3.41987V51.85V31.6619H5.01855H6.61724V51.85ZM28.7324 36.0549C28.7324 40.0602 28.6791 40.4155 28.2794 40.3186C27.8797 40.2217 27.7732 39.7695 27.6666 37.7991C27.5866 36.4748 27.4268 35.3765 27.2669 35.3765C27.1337 35.3765 26.9472 36.4748 26.8672 37.7991L26.734 40.2217L24.2827 40.3186L21.8047 40.4155V38.1867C21.8047 36.7009 21.6715 35.8288 21.4584 35.5703C20.8722 35.0212 20.7389 35.4734 20.7389 38.0252V40.3832H18.2077H15.6764V37.9606C15.6764 35.7641 15.6232 35.538 15.1436 35.538C14.6639 35.538 14.6107 35.7641 14.6107 37.9606V40.3832H12.0794H9.54816V38.0252C9.54816 35.4734 9.41493 35.0212 8.82875 35.5703C8.61559 35.8288 8.48237 36.7009 8.48237 38.1867C8.48237 40.1571 8.42908 40.4155 8.02941 40.3186C7.60309 40.2217 7.5498 39.7049 7.46987 35.9257L7.38993 31.6619H18.0745H28.7324V36.0549ZM73.4422 35.9257C73.3623 39.7049 73.309 40.2217 72.9093 40.3186C72.483 40.4155 72.4297 40.1571 72.4297 38.1867C72.4297 36.7009 72.2965 35.8288 72.0834 35.5703C71.4972 35.0212 71.364 35.4734 71.364 38.0252V40.3832H68.8327H66.3015V37.9606C66.3015 35.7641 66.2482 35.538 65.7686 35.538C65.289 35.538 65.2357 35.7641 65.2357 37.9606V40.3832H62.7044H60.1732V38.0252C60.1732 35.4734 60.0399 35.0212 59.4538 35.5703C59.2406 35.8288 59.1074 36.7009 59.1074 38.1867V40.4155L56.6561 40.3186L54.1781 40.2217L54.0449 37.7991C53.9649 36.4748 53.8051 35.3765 53.6452 35.3765C53.512 35.3765 53.3255 36.4748 53.2455 37.7991C53.139 39.7695 53.0324 40.2217 52.6593 40.3186C52.233 40.4155 52.1797 40.0602 52.1797 36.0549V31.6619H62.8376H73.5222L73.4422 35.9257ZM77.4922 51.85V72.038H75.8936H74.2949V51.85V31.6619H75.8936H77.4922V51.85ZM51.114 48.1354V62.3478H50.0482H48.9824V53.0128V43.6779L48.1297 42.6442C47.2771 41.6429 41.1755 37.7991 40.4294 37.7991C39.71 37.7991 33.635 41.6106 32.7824 42.5796L31.9297 43.5487V52.9482V62.3478H30.864H29.7982V48.1354V33.923H40.4561H51.114V48.1354ZM43.3603 40.5447C44.7192 41.3522 46.3445 42.4504 47.0107 42.9995L48.183 43.9686V53.142V62.3478H40.4561H32.7291V53.142V43.9686L33.9015 42.9995C35.3669 41.7721 39.8699 39.0911 40.4561 39.0911C40.6959 39.0911 42.0015 39.7372 43.3603 40.5447ZM28.7324 51.85V62.3478H18.0745H7.41658V51.85V41.3522H18.0745H28.7324V51.85ZM73.4955 51.85V62.3478H62.8376H52.1797V51.85V41.3522H62.8376H73.4955V51.85ZM28.7324 67.6774V72.038H18.0745H7.41658V67.9035C7.41658 65.6102 7.49651 63.6398 7.60309 63.5429C7.68303 63.4137 12.4791 63.3168 18.261 63.3168H28.7324V67.6774ZM51.114 67.6774V72.038H40.4561H29.7982V67.6774V63.3168H40.4561H51.114V67.6774ZM73.4422 67.742L73.5222 72.038H62.8376H52.1797V67.6774V63.3168L62.7843 63.3814L73.3623 63.4783L73.4422 67.742Z" fill="#001A72"/>
</svg>
