<svg width="56" height="66" viewBox="0 0 56 66" fill="none" xmlns="http://www.w3.org/2000/svg">
<path d="M24.3815 1.22826C22.2964 1.63353 19.556 3.05195 18.9305 4.06511C18.4241 4.93353 18.305 4.96247 16.3092 4.96247H14.2539V6.98879V9.01511H12.1688H10.0837V12.923V16.8309H9.19006H8.32623L8.23686 19.7835L8.1475 22.7651L6.12197 22.852L4.12623 22.9388V41.8704V60.8309H3.38155C2.42835 60.8309 2.36878 61.6125 3.32197 61.7572C3.88793 61.8441 3.97729 62.0467 4.06665 63.3493L4.15601 64.8835H2.36878C0.938992 64.8835 0.551758 64.9704 0.551758 65.3177C0.551758 65.6941 3.82835 65.752 28.2539 65.752C52.6794 65.752 55.956 65.6941 55.956 65.3177C55.956 64.9704 55.5688 64.8835 54.1688 64.8835H52.3815V63.2914C52.3815 61.7862 52.4113 61.6993 53.1262 61.6993C53.6028 61.6993 53.8709 61.5256 53.8709 61.2651C53.8709 61.0046 53.6028 60.8309 53.1262 60.8309H52.3815V41.8704V22.9098H50.2964H48.2113V19.8704V16.8309H47.1688H46.1262V12.923V9.04406L44.1305 8.95721L42.1049 8.87037L42.0156 6.90195L41.9262 4.96247H39.9305C38.0539 4.96247 37.9049 4.90458 37.4581 4.123C36.0284 1.69142 29.5049 0.244057 24.3815 1.22826ZM32.1262 2.24142C34.2113 2.70458 36.4156 3.80458 36.7135 4.52827C36.8624 4.90458 35.8496 4.96247 28.2539 4.96247C23.0113 4.96247 19.6156 4.84669 19.6156 4.70195C19.6156 4.32563 21.3135 3.10984 22.4454 2.67563C24.9177 1.74932 29.1475 1.54668 32.1262 2.24142ZM41.0624 7.423V9.01511L28.1943 8.95721L15.2964 8.87037L15.2071 7.33616L15.1177 5.8309H28.0752H41.0624V7.423ZM45.2326 13.3572V16.8309H28.2539H11.2752V13.3572V9.88353H28.2539H45.2326V13.3572ZM47.3177 20.3046V22.9098H28.2539H9.19006V20.3046V17.6993H28.2539H47.3177V20.3046ZM51.4284 24.2704C51.339 24.7625 49.9688 24.7914 28.1645 24.8783C5.16878 24.9362 5.01984 24.9362 5.01984 24.3572C5.01984 23.7783 5.19857 23.7783 28.2837 23.7783C50.2667 23.7783 51.5177 23.8072 51.4284 24.2704ZM51.4284 28.323L51.339 30.8704L28.1943 30.9572L5.01984 31.0151V28.4098V25.8046H28.2539H51.5177L51.4284 28.323ZM51.4879 46.3572V60.8309H49.8496H48.2113V55.3309V49.8309H48.956C49.4326 49.8309 49.7007 49.6572 49.7007 49.3967C49.7007 49.1362 49.4326 48.9625 48.956 48.9625C48.2411 48.9625 48.2113 48.8756 48.2113 47.3704C48.2113 45.8651 48.2411 45.7783 48.956 45.7783C49.4326 45.7783 49.7007 45.6046 49.7007 45.3441C49.7007 45.0835 49.4326 44.9098 48.956 44.9098C48.2709 44.9098 48.2113 44.7941 48.2113 43.723C48.2113 42.8256 48.0326 42.3625 47.3475 41.6967C46.5135 40.8862 46.3645 40.8572 43.6241 40.8572C41.122 40.8572 40.705 40.9441 40.0198 41.523C39.4241 42.0151 39.1858 42.5362 39.0667 43.5493C38.9177 44.7362 38.8284 44.9098 38.2028 44.9098C37.756 44.9098 37.4879 45.0835 37.4879 45.3441C37.4879 45.6046 37.756 45.7783 38.2326 45.7783C38.9475 45.7783 38.9773 45.8651 38.9773 47.3704C38.9773 48.8756 38.9475 48.9625 38.2326 48.9625C37.756 48.9625 37.4879 49.1362 37.4879 49.3967C37.4879 49.6572 37.756 49.8309 38.2326 49.8309H38.9773V55.3309V60.8309H37.339H35.7007V50.6125C35.7007 41.3783 35.6411 40.3072 35.1347 39.2651C34.4496 37.7888 32.2752 35.8493 30.756 35.3283C26.7645 34.0256 22.2964 36.1098 20.956 39.9598C20.5986 41.002 20.5092 43.0283 20.5092 51.0467V60.8309H18.8709H17.2326V55.3309V49.8309H17.9773C18.9305 49.8309 18.9901 49.0493 18.0667 48.9046C17.4709 48.8177 17.3815 48.6151 17.2922 47.2835C17.2028 45.8362 17.2326 45.7783 17.9475 45.7783C18.4241 45.7783 18.722 45.6046 18.722 45.3441C18.722 45.0835 18.4539 44.9098 17.9773 44.9098C17.2922 44.9098 17.2326 44.7941 17.2326 43.6072C17.2326 41.2914 16.1305 40.7414 12.0496 40.8862C9.04112 41.0309 8.56452 41.3493 8.29644 43.3756C8.17729 44.6204 8.05814 44.7651 7.34325 44.852C6.86665 44.9098 6.5092 45.1125 6.5092 45.3441C6.5092 45.5756 6.86665 45.7783 7.34325 45.8362C8.08793 45.923 8.1475 46.0098 8.1475 47.3704C8.1475 48.7309 8.08793 48.8177 7.34325 48.9046C6.18155 49.0493 6.24112 49.8309 7.40282 49.8309H8.29644V55.3309V60.8309H6.65814H5.01984V46.3572V31.8835H28.2539H51.4879V46.3572ZM31.5007 36.6309C32.5432 37.1809 33.8539 38.6572 34.4198 39.902C34.7177 40.6256 34.8071 43.1151 34.8071 50.8441V60.8309H34.0624C33.5858 60.8309 33.3177 61.0046 33.3177 61.2651C33.3177 61.5256 33.5858 61.6993 34.0624 61.6993C34.7773 61.6993 34.8071 61.7862 34.8071 63.2914V64.8835H28.1049H21.4028V63.2914C21.4028 61.7862 21.4326 61.6993 22.1475 61.6993C22.6241 61.6993 22.8922 61.5256 22.8922 61.2651C22.8922 61.0046 22.6241 60.8309 22.1475 60.8309H21.4028V51.1914C21.4028 45.7783 21.522 41.1467 21.7007 40.5677C22.8028 36.6598 27.6581 34.7204 31.5007 36.6309ZM15.6837 42.1888C16.1603 42.5072 16.339 42.9125 16.339 43.7809V44.9098H12.7645H9.19006V43.7809C9.19006 42.1309 9.93474 41.7256 12.7645 41.7256C14.3135 41.7256 15.2071 41.8704 15.6837 42.1888ZM46.722 42.3046C47.0794 42.652 47.3177 43.2598 47.3177 43.8967V44.9098H43.5645H39.7815L39.9603 43.6941C40.1986 42.0151 40.7347 41.7256 43.6539 41.7256C45.739 41.7256 46.2156 41.8125 46.722 42.3046ZM16.339 47.3704V48.9625H12.7645H9.19006V47.3704V45.7783H12.7645H16.339V47.3704ZM47.3177 47.3704V48.9914L43.6837 48.9046L40.0198 48.8177L39.9305 47.2835L39.8411 45.7783H43.5645H47.3177V47.3704ZM16.339 55.3309V60.8309H12.7645H9.19006V55.3309V49.8309H12.7645H16.339V55.3309ZM47.3177 55.3309V60.8309H43.5943H39.8709V55.3309V49.8309H43.5943H47.3177V55.3309ZM8.1475 63.2914V64.7388L6.59857 64.8256L5.01984 64.9125V63.2914V61.6704L6.59857 61.7572L8.1475 61.8441V63.2914ZM16.339 63.2914V64.8835H12.7645H9.19006V63.2914V61.6993H12.7645H16.339V63.2914ZM20.5092 63.2914V64.8835H18.8709H17.2326V63.4941C17.2326 62.7125 17.322 61.9888 17.4411 61.902C17.5305 61.7862 18.2752 61.6993 19.0794 61.6993H20.5092V63.2914ZM38.9773 63.3204V64.9125L37.4284 64.8256L35.8496 64.7388L35.7603 63.6098C35.6113 61.902 35.7901 61.6993 37.4879 61.6993H38.9773V63.3204ZM47.3177 63.2914V64.8835H43.5943H39.8709V63.4941C39.8709 62.7125 39.9603 61.9888 40.0794 61.902C40.1688 61.7862 41.8667 61.6993 43.8028 61.6993H47.3177V63.2914ZM51.4284 63.3493L51.5177 64.8835H49.8794H48.2113V63.2625V61.6704L49.7901 61.7572L51.339 61.8441L51.4284 63.3493Z" fill="#001A72"/>
</svg>
