<svg width="20" height="21" viewBox="0 0 12 9" fill="none" xmlns="http://www.w3.org/2000/svg">
<path d="M11.5212 7.4588L11.536 1.60882C11.5374 1.06932 11.103 0.632715 10.5635 0.631346L1.45701 0.608247C0.917509 0.606879 0.480905 1.04127 0.479537 1.58077L0.464698 7.43075C0.463329 7.97025 0.897723 8.40685 1.43722 8.40822L10.5437 8.43132C11.0832 8.43269 11.5198 7.9983 11.5212 7.4588ZM10.6847 1.53516C10.8986 1.7502 10.7811 1.9709 10.6638 2.08111L8.01868 4.4924L10.547 7.13783C10.6247 7.22902 10.6764 7.37215 10.5851 7.46942C10.5004 7.57321 10.3054 7.56621 10.2211 7.501L7.38671 5.0693L5.9925 6.33327L4.61122 5.06226L1.76458 7.47955C1.67991 7.54433 1.4849 7.55034 1.40066 7.44613C1.30991 7.3484 1.36227 7.20553 1.4405 7.11473L3.98219 4.48216L1.34933 2.05748C1.23261 1.94668 1.11617 1.72539 1.33122 1.51143C1.54626 1.29748 1.76699 1.40204 1.9486 1.5585L5.99628 4.84478L10.0671 1.57909C10.2495 1.42355 10.4707 1.32011 10.6847 1.53516Z" fill="#48CAE4"/>
</svg>
