<svg width="20" height="21" viewBox="0 0 20 21" fill="none" xmlns="http://www.w3.org/2000/svg">
<path d="M18.6493 0.943301L1.99584 0.901058C1.72181 0.900363 1.45871 1.01274 1.26443 1.21347C1.07015 1.4142 0.960601 1.68684 0.959879 1.97141L0.916011 19.2657C0.915358 19.5502 1.02356 19.8233 1.21681 20.025C1.41006 20.2266 1.67254 20.3403 1.94653 20.341L10.9121 20.3637L10.9312 12.8356L8.4916 12.8294L8.49904 9.89562L10.9386 9.90181L10.9441 7.73804C10.9505 5.22705 12.4307 3.86379 14.5877 3.86926C15.6209 3.87188 16.5086 3.95378 16.7675 3.99035L16.7608 6.61447L15.2648 6.61149C14.0917 6.60851 13.8632 7.18681 13.8611 8.03623L13.8563 9.90948L16.6539 9.91658L16.2822 12.8495L13.8489 12.8433L13.8298 20.3711L18.6003 20.3832C18.8742 20.3839 19.1373 20.2715 19.3315 20.0707C19.5257 19.87 19.6352 19.5974 19.6359 19.3129L19.6798 2.0189C19.6805 1.73433 19.5724 1.46114 19.3791 1.25942C19.1859 1.05771 18.9233 0.943996 18.6493 0.943301Z" fill="#48CAE4"/>
</svg>
